<svg width="30" height="31" viewBox="0 0 30 31" fill="none" xmlns="http://www.w3.org/2000/svg">
<path d="M21.125 17.875C21.5898 17.875 22 18.2852 22 18.75V21.375C22 21.8672 21.5898 22.25 21.125 22.25H8.875C8.38281 22.25 8 21.8672 8 21.375V18.75C8 18.2852 8.38281 17.875 8.875 17.875H12.5117L13.7422 19.1328C14.0703 19.4609 14.5078 19.625 15 19.625C15.4648 19.625 15.9023 19.4609 16.2305 19.1328L17.4609 17.875H21.125ZM19.8125 20.7188C20.168 20.7188 20.4688 20.4453 20.4688 20.0625C20.4688 19.707 20.168 19.4062 19.8125 19.4062C19.4297 19.4062 19.1562 19.707 19.1562 20.0625C19.1562 20.4453 19.4297 20.7188 19.8125 20.7188ZM14.3711 18.5039L10.8711 15.0039C10.5156 14.6758 10.5156 14.1016 10.8711 13.7734C11.1992 13.418 11.7734 13.418 12.1016 13.7734L14.125 15.7695V9.125C14.125 8.66016 14.5078 8.25 15 8.25C15.4648 8.25 15.875 8.66016 15.875 9.125V15.7695L17.8711 13.7734C18.1992 13.418 18.7734 13.418 19.1016 13.7734C19.457 14.1016 19.457 14.6758 19.1016 15.0039L15.6016 18.5039C15.4375 18.668 15.2188 18.75 15 18.75C14.7539 18.75 14.5352 18.668 14.3711 18.5039Z" fill="black"/>
</svg>
