<svg width="30" height="22" viewBox="0 0 30 22" fill="none" xmlns="http://www.w3.org/2000/svg">
<path d="M24.5625 1.78125C27.6562 6.375 29.2031 11.5312 28.6406 17.4844C28.6406 17.4844 28.6406 17.5312 28.5938 17.5312C26.5312 19.0781 24.1875 20.25 21.7031 21C21.6562 21.0469 21.6562 21 21.6094 21C21.0938 20.25 20.625 19.5 20.2031 18.7031C20.2031 18.6562 20.2031 18.6094 20.25 18.5625C21 18.2812 21.7031 17.9531 22.4062 17.5312C22.4531 17.5312 22.4531 17.4375 22.4062 17.3906C22.2656 17.2969 22.125 17.2031 21.9844 17.0625C21.9375 17.0625 21.9375 17.0625 21.8906 17.0625C17.4375 19.125 12.5625 19.125 8.0625 17.0625C8.01562 17.0625 7.96875 17.0625 7.96875 17.0625C7.82812 17.2031 7.6875 17.2969 7.54688 17.3906C7.45312 17.4375 7.5 17.5312 7.54688 17.5312C8.20312 17.9531 8.95312 18.2812 9.70312 18.5625C9.75 18.6094 9.75 18.6562 9.75 18.7031C9.32812 19.5 8.85938 20.25 8.34375 21C8.29688 21 8.25 21.0469 8.25 21C5.76562 20.25 3.42188 19.0781 1.35938 17.5312C1.3125 17.5312 1.3125 17.4844 1.3125 17.4844C0.84375 12.3281 1.82812 7.125 5.39062 1.78125C5.39062 1.78125 5.39062 1.78125 5.4375 1.78125C7.21875 0.9375 9.09375 0.375 11.0156 0.046875C11.0625 0 11.1094 0.046875 11.1094 0.046875C11.3906 0.515625 11.625 1.03125 11.8125 1.5C13.9219 1.17188 16.0312 1.17188 18.1406 1.5C18.3281 1.03125 18.5625 0.515625 18.8438 0.046875C18.8438 0.046875 18.8906 0 18.9375 0.046875C20.8594 0.375 22.7344 0.9375 24.5156 1.78125C24.5625 1.78125 24.5625 1.78125 24.5625 1.78125ZM10.4062 14.3438C11.7656 14.3438 12.8906 13.0781 12.8906 11.5781C12.8906 10.0312 11.8125 8.8125 10.4062 8.8125C9.04688 8.8125 7.92188 10.0312 7.92188 11.5781C7.92188 13.0781 9.04688 14.3438 10.4062 14.3438ZM19.5469 14.3438C20.9531 14.3438 22.0312 13.0781 22.0312 11.5781C22.0781 10.0312 20.9531 8.8125 19.5469 8.8125C18.1875 8.8125 17.1094 10.0312 17.1094 11.5781C17.1094 13.0781 18.1875 14.3438 19.5469 14.3438Z" fill="white"/>
</svg>
