<svg width="24" height="24" viewBox="0 0 24 24" fill="none" xmlns="http://www.w3.org/2000/svg">
<path d="M8.10938 19.1562C8.10938 19.0625 8.01562 18.9688 7.875 18.9688C7.73438 18.9688 7.64062 19.0625 7.64062 19.1562C7.64062 19.25 7.73438 19.3438 7.875 19.2969C8.01562 19.2969 8.10938 19.25 8.10938 19.1562ZM6.65625 18.9219C6.70312 18.8281 6.84375 18.7812 6.98438 18.8281C7.125 18.875 7.17188 18.9688 7.17188 19.0625C7.125 19.1562 6.98438 19.2031 6.89062 19.1562C6.75 19.1562 6.65625 19.0156 6.65625 18.9219ZM8.76562 18.875C8.85938 18.8281 9 18.9219 9 19.0156C9.04688 19.1094 8.95312 19.1562 8.8125 19.2031C8.67188 19.25 8.53125 19.2031 8.53125 19.1094C8.53125 18.9688 8.625 18.875 8.76562 18.875ZM11.8125 0.875C18.3281 0.875 23.625 5.84375 23.625 12.3125C23.625 17.5156 20.4375 21.9688 15.75 23.5156C15.1406 23.6562 14.9062 23.2812 14.9062 22.9531C14.9062 22.5781 14.9531 20.6094 14.9531 19.0625C14.9531 17.9375 14.5781 17.2344 14.1562 16.8594C16.7812 16.5781 19.5469 16.2031 19.5469 11.7031C19.5469 10.3906 19.0781 9.78125 18.3281 8.9375C18.4219 8.60938 18.8438 7.39062 18.1875 5.75C17.2031 5.42188 14.9531 7.01562 14.9531 7.01562C14.0156 6.73438 13.0312 6.64062 12 6.64062C11.0156 6.64062 10.0312 6.73438 9.09375 7.01562C9.09375 7.01562 6.79688 5.46875 5.85938 5.75C5.20312 7.39062 5.57812 8.60938 5.71875 8.9375C4.96875 9.78125 4.59375 10.3906 4.59375 11.7031C4.59375 16.2031 7.26562 16.5781 9.89062 16.8594C9.51562 17.1875 9.23438 17.7031 9.14062 18.4531C8.4375 18.7812 6.75 19.2969 5.71875 17.4688C5.0625 16.3438 3.89062 16.25 3.89062 16.25C2.76562 16.25 3.84375 17 3.84375 17C4.59375 17.3281 5.10938 18.6875 5.10938 18.6875C5.8125 20.7969 9.09375 20.0938 9.09375 20.0938C9.09375 21.0781 9.09375 22.6719 9.09375 23C9.09375 23.2812 8.90625 23.6562 8.29688 23.5625C3.60938 21.9688 0.375 17.5156 0.375 12.3125C0.375 5.84375 5.34375 0.875 11.8125 0.875ZM4.92188 17.0469C4.96875 17 5.0625 17.0469 5.15625 17.0938C5.25 17.1875 5.25 17.3281 5.20312 17.375C5.10938 17.4219 5.01562 17.375 4.92188 17.3281C4.875 17.2344 4.82812 17.0938 4.92188 17.0469ZM4.40625 16.6719C4.45312 16.625 4.5 16.625 4.59375 16.6719C4.6875 16.7188 4.73438 16.7656 4.73438 16.8125C4.6875 16.9062 4.59375 16.9062 4.5 16.8594C4.40625 16.8125 4.35938 16.7656 4.40625 16.6719ZM5.90625 18.3594C6 18.2656 6.14062 18.3125 6.23438 18.4062C6.32812 18.5 6.32812 18.6406 6.28125 18.6875C6.23438 18.7812 6.09375 18.7344 6 18.6406C5.85938 18.5469 5.85938 18.4062 5.90625 18.3594ZM5.39062 17.6562C5.48438 17.6094 5.57812 17.6562 5.67188 17.75C5.71875 17.8438 5.71875 17.9844 5.67188 18.0312C5.57812 18.0781 5.48438 18.0312 5.39062 17.9375C5.29688 17.8438 5.29688 17.7031 5.39062 17.6562Z" fill="white"/>
</svg>
